********* Diamond.Dogs.2007.DVDRiP.XviD.MULTISUB-Zen_Bud *********

Format                           : AVI
Format profile                   : OpenDML
File size                        : 700 MiB
Duration                         : 1h 30mn
Overall bit rate                 : 1 081 Kbps
Writing application              : AVI-Mux GUI 1.17.8.3

Video

Format                           : MPEG-4 Visual
Codec ID/Hint                    : XviD
Duration                         : 1h 30mn
Bit rate                         : 949 Kbps
Width                            : 720 pixels
Height                           : 554 pixels
Display aspect ratio             : 16:9
Stream size                      : 615 MiB (88%)
Writing library                  : XviD 1.1.2 (UTC 2006-11-01)

Audio

Format                           : MPEG Audio
Codec ID                         : 55
Codec ID/Hint                    : MP3
Duration                         : 1h 30mn
Bit rate                         : 128 Kbps
Channel(s)                       : 2 channels
Sampling rate                    : 48.0 KHz
Stream size                      : 82.9 MiB (12%)
Writing library                  : LAME3.98
Language                         : English

Text #1
Language                         : Swedish

Text #2
Language                         : Finnish

Text #3
Language                         : Norwegian

Text #4
Language                         : Danish


A mercenary is hired to protect an expedition group while they search for a Tangka, a Buddhist artifact worth millions of dollars.